<?xml version="1.0" encoding="utf-8"?><!DOCTYPE svg PUBLIC "-//W3C//DTD SVG 1.1//EN" "http://www.w3.org/Graphics/SVG/1.1/DTD/svg11.dtd"><svg version="1" xmlns="http://www.w3.org/2000/svg" width="1000" height="600"><defs id="_ABSTRACT_RENDERER_ID_8"></defs><rect x="0" y="0" width="1000" height="600" stroke="none" stroke-width="0" fill="#ffffff"></rect><g><rect x="598" y="115" width="215" height="87" stroke="none" stroke-width="0" fill-opacity="0" fill="#ffffff"></rect><g column-id="Малый бизнес"><rect x="598" y="115" width="215" height="15" stroke="none" stroke-width="0" fill-opacity="0" fill="#ffffff"></rect><g><text text-anchor="start" x="619" y="127.75" font-family="Arial" font-size="15" stroke="none" stroke-width="0" fill="#222222">Малый бизнес</text></g><circle cx="605.5" cy="122.5" r="7.5" stroke="none" stroke-width="0" fill="#4285f4"></circle></g><g column-id="Средний бизнем"><rect x="598" y="139" width="215" height="15" stroke="none" stroke-width="0" fill-opacity="0" fill="#ffffff"></rect><g><text text-anchor="start" x="619" y="151.75" font-family="Arial" font-size="15" stroke="none" stroke-width="0" fill="#222222">Средний бизнем</text></g><circle cx="605.5" cy="146.5" r="7.5" stroke="none" stroke-width="0" fill="#db4437"></circle></g><g column-id="Крупный бизнес"><rect x="598" y="163" width="215" height="15" stroke="none" stroke-width="0" fill-opacity="0" fill="#ffffff"></rect><g><text text-anchor="start" x="619" y="175.75" font-family="Arial" font-size="15" stroke="none" stroke-width="0" fill="#222222">Крупный бизнес</text></g><circle cx="605.5" cy="170.5" r="7.5" stroke="none" stroke-width="0" fill="#c2185b"></circle></g><g column-id="ИП"><rect x="598" y="187" width="215" height="15" stroke="none" stroke-width="0" fill-opacity="0" fill="#ffffff"></rect><g><text text-anchor="start" x="619" y="199.75" font-family="Arial" font-size="15" stroke="none" stroke-width="0" fill="#222222">ИП</text></g><circle cx="605.5" cy="194.5" r="7.5" stroke="none" stroke-width="0" fill="#0f9d58"></circle></g></g><g><path d="M381,301L381,116A185,185,0,0,1,530.6681439593652,192.25972832589247L381,301A0,0,0,0,0,381,301" stroke="#ffffff" stroke-width="1" fill="#4285f4"></path><text text-anchor="start" x="436.92038170607077" y="167.06091380923016" font-family="Arial" font-size="15" stroke="none" stroke-width="0" fill="#ffffff">15%</text></g><g><path d="M381,301L530.6681439593652,192.25972832589247A185,185,0,0,1,556.9454555146034,358.16814395936524L381,301A0,0,0,0,0,381,301" stroke="#ffffff" stroke-width="1" fill="#db4437"></path><text text-anchor="start" x="518.0408525425219" y="282.1690946635873" font-family="Arial" font-size="15" stroke="none" stroke-width="0" fill="#ffffff">15%</text></g><g><path d="M381,301L272.25972832589247,151.33185604063473A185,185,0,0,1,381,116L381,301A0,0,0,0,0,381,301" stroke="#ffffff" stroke-width="1" fill="#0f9d58"></path><text text-anchor="start" x="317.23358958057366" y="156.16242148500004" font-family="Arial" font-size="15" stroke="none" stroke-width="0" fill="#ffffff">10%</text></g><g><path d="M381,301L556.9454555146034,358.16814395936524A185,185,0,1,1,272.2597283258923,151.33185604063485L381,301A0,0,0,1,0,381,301" stroke="#ffffff" stroke-width="1" fill="#c2185b"></path><text text-anchor="start" x="274.92861082174016" y="431.599013537151" font-family="Arial" font-size="15" stroke="none" stroke-width="0" fill="#ffffff">60%</text></g><g></g></svg>