<?xml version="1.0" encoding="utf-8"?><!DOCTYPE svg PUBLIC "-//W3C//DTD SVG 1.1//EN" "http://www.w3.org/Graphics/SVG/1.1/DTD/svg11.dtd"><svg version="1" xmlns="http://www.w3.org/2000/svg" width="900" height="600"><defs id="_ABSTRACT_RENDERER_ID_25"></defs><rect x="0" y="0" width="900" height="600" stroke="none" stroke-width="0" fill="#ffffff"></rect><g><rect x="539" y="115" width="189" height="175" stroke="none" stroke-width="0" fill-opacity="0" fill="#ffffff"></rect><g column-id="Одежда"><rect x="539" y="115" width="189" height="14" stroke="none" stroke-width="0" fill-opacity="0" fill="#ffffff"></rect><g><text text-anchor="start" x="558" y="126.9" font-family="Arial" font-size="14" stroke="none" stroke-width="0" fill="#222222">Одежда</text></g><circle cx="546" cy="122" r="7" stroke="none" stroke-width="0" fill="#4285f4"></circle></g><g column-id="Игрушки"><rect x="539" y="138" width="189" height="14" stroke="none" stroke-width="0" fill-opacity="0" fill="#ffffff"></rect><g><text text-anchor="start" x="558" y="149.9" font-family="Arial" font-size="14" stroke="none" stroke-width="0" fill="#222222">Игрушки</text></g><circle cx="546" cy="145" r="7" stroke="none" stroke-width="0" fill="#db4437"></circle></g><g column-id="Техника"><rect x="539" y="161" width="189" height="14" stroke="none" stroke-width="0" fill-opacity="0" fill="#ffffff"></rect><g><text text-anchor="start" x="558" y="172.9" font-family="Arial" font-size="14" stroke="none" stroke-width="0" fill="#222222">Техника</text></g><circle cx="546" cy="168" r="7" stroke="none" stroke-width="0" fill="#f4b400"></circle></g><g column-id="Канцелярия"><rect x="539" y="184" width="189" height="14" stroke="none" stroke-width="0" fill-opacity="0" fill="#ffffff"></rect><g><text text-anchor="start" x="558" y="195.9" font-family="Arial" font-size="14" stroke="none" stroke-width="0" fill="#222222">Канцелярия</text></g><circle cx="546" cy="191" r="7" stroke="none" stroke-width="0" fill="#0f9d58"></circle></g><g column-id="Утварь"><rect x="539" y="207" width="189" height="14" stroke="none" stroke-width="0" fill-opacity="0" fill="#ffffff"></rect><g><text text-anchor="start" x="558" y="218.9" font-family="Arial" font-size="14" stroke="none" stroke-width="0" fill="#222222">Утварь</text></g><circle cx="546" cy="214" r="7" stroke="none" stroke-width="0" fill="#ab47bc"></circle></g><g column-id="Бижутерия"><rect x="539" y="230" width="189" height="14" stroke="none" stroke-width="0" fill-opacity="0" fill="#ffffff"></rect><g><text text-anchor="start" x="558" y="241.9" font-family="Arial" font-size="14" stroke="none" stroke-width="0" fill="#222222">Бижутерия</text></g><circle cx="546" cy="237" r="7" stroke="none" stroke-width="0" fill="#00acc1"></circle></g><g column-id="Книги"><rect x="539" y="253" width="189" height="14" stroke="none" stroke-width="0" fill-opacity="0" fill="#ffffff"></rect><g><text text-anchor="start" x="558" y="264.9" font-family="Arial" font-size="14" stroke="none" stroke-width="0" fill="#222222">Книги</text></g><circle cx="546" cy="260" r="7" stroke="none" stroke-width="0" fill="#ff7043"></circle></g><g column-id="Спортинвентарь"><rect x="539" y="276" width="189" height="14" stroke="none" stroke-width="0" fill-opacity="0" fill="#ffffff"></rect><g><text text-anchor="start" x="558" y="287.9" font-family="Arial" font-size="14" stroke="none" stroke-width="0" fill="#222222">Спортинвентарь</text></g><circle cx="546" cy="283" r="7" stroke="none" stroke-width="0" fill="#9e9d24"></circle></g></g><g><path d="M344,301L344,129A172,172,0,0,1,479.35623288710815,407.1258225815515L344,301A0,0,0,0,0,344,301" stroke="#ffffff" stroke-width="1" fill="#4285f4"></path><text text-anchor="start" x="447.1270994717572" y="245.97740742617847" font-family="Arial" font-size="14" stroke="none" stroke-width="0" fill="#ffffff">35.6%</text></g><g><path d="M344,301L304.5730511010157,133.57982289903978A172,172,0,0,1,344,129L344,301A0,0,0,0,0,344,301" stroke="#ffffff" stroke-width="1" fill="#9e9d24"></path></g><g><path d="M344,301L267.2457352649015,147.07539883119915A172,172,0,0,1,304.5730511010157,133.57982289903978L344,301A0,0,0,0,0,344,301" stroke="#ffffff" stroke-width="1" fill="#ff7043"></path></g><g><path d="M344,301L244.5168220402217,160.68928300723752A172,172,0,0,1,267.2457352649015,147.07539883119915L344,301A0,0,0,0,0,344,301" stroke="#ffffff" stroke-width="1" fill="#00acc1"></path></g><g><path d="M344,301L189.3428930116258,225.73261491199145A172,172,0,0,1,244.5168220402217,160.68928300723752L344,301A0,0,0,0,0,344,301" stroke="#ffffff" stroke-width="1" fill="#ab47bc"></path><text text-anchor="start" x="222.78213130679399" y="211.55786508328995" font-family="Arial" font-size="14" stroke="none" stroke-width="0" fill="#ffffff">8%</text></g><g><path d="M344,301L185.25175849142508,367.20419788755976A172,172,0,0,1,189.3428930116258,225.73261491199145L344,301A0,0,0,0,0,344,301" stroke="#ffffff" stroke-width="1" fill="#0f9d58"></path><text text-anchor="start" x="186.3819608262207" y="301.92030387428827" font-family="Arial" font-size="14" stroke="none" stroke-width="0" fill="#ffffff">13.5%</text></g><g><path d="M344,301L314.31390228910175,470.4188171446697A172,172,0,0,1,185.25175849142514,367.2041978875599L344,301A0,0,0,0,0,344,301" stroke="#ffffff" stroke-width="1" fill="#f4b400"></path><text text-anchor="start" x="240.27930703962508" y="418.08900054879064" font-family="Arial" font-size="14" stroke="none" stroke-width="0" fill="#ffffff">16%</text></g><g><path d="M344,301L479.35623288710815,407.1258225815515A172,172,0,0,1,314.3139022891017,470.4188171446696L344,301A0,0,0,0,0,344,301" stroke="#ffffff" stroke-width="1" fill="#db4437"></path><text text-anchor="start" x="375.3732476147314" y="439.86048923342395" font-family="Arial" font-size="14" stroke="none" stroke-width="0" fill="#ffffff">17.2%</text></g><g></g></svg>