<?xml version="1.0" encoding="utf-8"?><!DOCTYPE svg PUBLIC "-//W3C//DTD SVG 1.1//EN" "http://www.w3.org/Graphics/SVG/1.1/DTD/svg11.dtd"><svg version="1" xmlns="http://www.w3.org/2000/svg" width="800" height="400"><defs id="_ABSTRACT_RENDERER_ID_20"></defs><rect x="0" y="0" width="800" height="400" stroke="none" stroke-width="0" fill="#ffffff"></rect><g><rect x="484" y="77" width="183" height="34" stroke="none" stroke-width="0" fill-opacity="0" fill="#ffffff"></rect><g column-id="Хотят зарабатывать "><rect x="484" y="77" width="183" height="13" stroke="none" stroke-width="0" fill-opacity="0" fill="#ffffff"></rect><g><text text-anchor="start" x="502" y="88.05" font-family="Arial" font-size="13" stroke="none" stroke-width="0" fill="#222222">Хотят зарабатывать</text></g><circle cx="490.5" cy="83.5" r="6.5" stroke="none" stroke-width="0" fill="#db4437"></circle></g><g column-id="Работают"><rect x="484" y="98" width="183" height="13" stroke="none" stroke-width="0" fill-opacity="0" fill="#ffffff"></rect><g><text text-anchor="start" x="502" y="109.05" font-family="Arial" font-size="13" stroke="none" stroke-width="0" fill="#222222">Работают</text></g><circle cx="490.5" cy="104.5" r="6.5" stroke="none" stroke-width="0" fill="#0f9d58"></circle></g></g><g><path d="M299,201L176.52469631571074,189.65099178601395A123,123,0,0,1,299,78L299,201A0,0,0,0,0,299,201" stroke="#ffffff" stroke-width="1" fill="#0f9d58"></path><text text-anchor="start" x="218.29104183043518" y="137.31002360728607" font-family="Arial" font-size="13" stroke="none" stroke-width="0" fill="#ffffff">23.5%</text></g><g><path d="M299,201L299,78A123,123,0,1,1,176.52469631571074,189.65099178601395L299,201A0,0,0,1,0,299,201" stroke="#ffffff" stroke-width="1" fill="#db4437"></path><text text-anchor="start" x="342.7089581695648" y="273.789976392714" font-family="Arial" font-size="13" stroke="none" stroke-width="0" fill="#ffffff">76.5%</text></g><g></g></svg>