<?xml version="1.0" encoding="utf-8"?><!DOCTYPE svg PUBLIC "-//W3C//DTD SVG 1.1//EN" "http://www.w3.org/Graphics/SVG/1.1/DTD/svg11.dtd"><svg version="1" xmlns="http://www.w3.org/2000/svg" width="800" height="400"><defs id="_ABSTRACT_RENDERER_ID_6"></defs><rect x="0" y="0" width="800" height="400" stroke="none" stroke-width="0" fill="#ffffff"></rect><g><rect x="484" y="77" width="183" height="76" stroke="none" stroke-width="0" fill-opacity="0" fill="#ffffff"></rect><g column-id="Малый бизнес"><rect x="484" y="77" width="183" height="13" stroke="none" stroke-width="0" fill-opacity="0" fill="#ffffff"></rect><g><text text-anchor="start" x="502" y="88.05" font-family="Arial" font-size="13" stroke="none" stroke-width="0" fill="#222222">Малый бизнес</text></g><circle cx="490.5" cy="83.5" r="6.5" stroke="none" stroke-width="0" fill="#4285f4"></circle></g><g column-id="Средний бизнем"><rect x="484" y="98" width="183" height="13" stroke="none" stroke-width="0" fill-opacity="0" fill="#ffffff"></rect><g><text text-anchor="start" x="502" y="109.05" font-family="Arial" font-size="13" stroke="none" stroke-width="0" fill="#222222">Средний бизнем</text></g><circle cx="490.5" cy="104.5" r="6.5" stroke="none" stroke-width="0" fill="#db4437"></circle></g><g column-id="Крупный бизнес"><rect x="484" y="119" width="183" height="13" stroke="none" stroke-width="0" fill-opacity="0" fill="#ffffff"></rect><g><text text-anchor="start" x="502" y="130.05" font-family="Arial" font-size="13" stroke="none" stroke-width="0" fill="#222222">Крупный бизнес</text></g><circle cx="490.5" cy="125.5" r="6.5" stroke="none" stroke-width="0" fill="#c2185b"></circle></g><g column-id="ИП"><rect x="484" y="140" width="183" height="13" stroke="none" stroke-width="0" fill-opacity="0" fill="#ffffff"></rect><g><text text-anchor="start" x="502" y="151.05" font-family="Arial" font-size="13" stroke="none" stroke-width="0" fill="#222222">ИП</text></g><circle cx="490.5" cy="146.5" r="6.5" stroke="none" stroke-width="0" fill="#0f9d58"></circle></g></g><g><path d="M299,201L299,78A123,123,0,0,1,398.5090903081185,128.7024139680258L299,201A0,0,0,0,0,299,201" stroke="#ffffff" stroke-width="1" fill="#4285f4"></path><text text-anchor="start" x="330.4762499294117" y="118.26044464306379" font-family="Arial" font-size="13" stroke="none" stroke-width="0" fill="#ffffff">15%</text></g><g><path d="M299,201L398.5090903081185,128.7024139680258A123,123,0,0,1,415.97995150430387,239.00909030811852L299,201A0,0,0,0,0,299,201" stroke="#ffffff" stroke-width="1" fill="#db4437"></path><text text-anchor="start" x="380.8731333200123" y="190.52357187727475" font-family="Arial" font-size="13" stroke="none" stroke-width="0" fill="#ffffff">15%</text></g><g><path d="M299,201L226.70241396802578,101.49090969188148A123,123,0,0,1,299,78L299,201A0,0,0,0,0,299,201" stroke="#ffffff" stroke-width="1" fill="#0f9d58"></path><text text-anchor="start" x="255.31077311949548" y="111.09827166123503" font-family="Arial" font-size="13" stroke="none" stroke-width="0" fill="#ffffff">10%</text></g><g><path d="M299,201L415.97995150430387,239.00909030811852A123,123,0,1,1,226.7024139680257,101.49090969188154L299,201A0,0,0,1,0,299,201" stroke="#ffffff" stroke-width="1" fill="#c2185b"></path><text text-anchor="start" x="229.04587049676033" y="283.940634144433" font-family="Arial" font-size="13" stroke="none" stroke-width="0" fill="#ffffff">60%</text></g><g></g></svg>